<?xml version="1.0" encoding="utf-8"?>
<!-- Generator: Adobe Illustrator 25.1.0, SVG Export Plug-In . SVG Version: 6.00 Build 0)  -->
<svg version="1.1" id="Layer_1" xmlns="http://www.w3.org/2000/svg" xmlns:xlink="http://www.w3.org/1999/xlink" x="0px" y="0px"
	 viewBox="0 0 245.1 96.8" style="enable-background:new 0 0 245.1 96.8;" xml:space="preserve">
<style type="text/css">
	.st0{fill:none;}
	.st1{fill:#FFFFFF;}
</style>
<g id="base">
	<rect class="st0" width="245.1" height="96.8"/>
</g>
<g id="mark">
	<path class="st1" d="M73.3,86.2c-3.2-4.4-4.9-9.7-4.9-15.1c0.1-9.1,0.7-47,0.6-51.5c0-5.1,0.3-12.7,0.3-12.7S93.1,17.6,94,46
		C94.7,62.1,86.8,77.4,73.3,86.2z"/>
	<path class="st1" d="M7.5,69.6C13.6,81.5,24.9,90,38,92.6c0,0,3-3.7,4.7-13.2s0.5-14.1-2.5-17.7S3.2,37.6,3.2,37.6
		S-1.3,52.4,7.5,69.6z"/>
	<path class="st1" d="M31.1,5C10.6,13.2,5.3,30.9,5.3,30.9S23.5,40,26.9,41.4c5.4,2.2,14.5,6.9,20.5,6c7.9-1.2,11.7-6.7,12.2-11.6
		c0.8-8.3,3.1-31.6,3.1-31.6C52.4,0.7,41.2,1,31.1,5z M47.7,43.1l-0.3,0.1c-4.9,1.2-9.9-1.8-11.3-6.7c-1.1-4.8,1.8-9.6,6.6-10.7
		l0.3-0.1c5-1.2,10,1.8,11.3,6.7C55.5,37.2,52.5,42,47.7,43.1z"/>
</g>
<g id="tagline">
	<path class="st1" d="M104.6,81.1v9.8h-0.8v-9.8h-3.7v-0.7h8.1v0.7H104.6z"/>
	<path class="st1" d="M112,91c-2.2,0-3.9-1.8-3.9-3.9V87l0,0c0-2.2,1.7-3.9,3.9-4c2.1,0,3.9,1.7,3.9,3.9c0,0,0,0,0,0V87l0,0
		C115.9,89.2,114.2,91,112,91C112,91,112,91,112,91z M115.1,87c0.1-1.8-1.3-3.2-3.1-3.3c0,0,0,0,0,0l0,0c-1.7,0-3.1,1.4-3.1,3.2
		c0,0,0,0,0,0V87l0,0c-0.1,1.8,1.3,3.3,3.1,3.3l0,0c1.7,0,3.1-1.4,3.1-3.2C115.1,87.1,115.1,87,115.1,87L115.1,87z"/>
	<path class="st1" d="M121.7,93.3c-1.3,0-2.5-0.4-3.5-1.2l0.4-0.6c0.9,0.7,2,1.1,3.1,1.1c1.5,0.2,2.8-0.9,3-2.5c0,0,0,0,0,0
		c0-0.2,0-0.4,0-0.5v-1.1c-0.7,1.1-1.9,1.8-3.2,1.8c-2,0-3.6-1.6-3.7-3.6l0,0l0,0c0-2,1.6-3.7,3.6-3.7c0,0,0,0,0.1,0l0,0
		c1.3,0,2.5,0.6,3.2,1.7v-1.5h0.7v6.5c0.1,1.9-1.3,3.5-3.2,3.6c0,0,0,0,0,0C122,93.3,121.8,93.3,121.7,93.3z M124.7,86.6
		c0-1.7-1.4-3-3.1-2.9c0,0,0,0,0,0h-0.1c-1.6-0.1-2.9,1.1-2.9,2.7v0.2l0,0c0,1.6,1.3,2.9,2.9,2.9h0.1
		C123.2,89.6,124.6,88.4,124.7,86.6C124.6,86.7,124.6,86.7,124.7,86.6L124.7,86.6z"/>
	<path class="st1" d="M131.6,90.3c1,0,2-0.4,2.6-1.2l0.5,0.4c-0.8,0.9-1.9,1.4-3.1,1.4c-2.1,0-3.8-1.8-3.7-3.8c0,0,0,0,0,0V87l0,0
		c-0.1-2.1,1.4-3.9,3.5-4h0.1c2.1,0,3.5,1.7,3.5,4l0,0c0,0.1,0,0.2,0,0.3h-6.3C128.6,88.9,129.9,90.3,131.6,90.3L131.6,90.3z
		 M134.2,86.7c-0.1-1.6-1-3-2.7-3c-1.6,0.1-2.8,1.4-2.8,3H134.2z"/>
	<path class="st1" d="M139.7,91c-1.1,0.1-2.1-0.8-2.1-1.9c0,0,0,0,0,0v-5.2h-1.1v-0.7h1.1v-2.4h0.7v2.4h2.7v0.7h-2.7v4.9
		c-0.1,0.7,0.4,1.4,1.2,1.5h0.4c0.4,0,0.8-0.1,1.1-0.3v0.6C140.6,90.9,140.2,91,139.7,91z"/>
	<path class="st1" d="M149.2,90.8v-4.5c0.2-1.3-0.7-2.4-2-2.6c-0.1,0-0.3,0-0.4,0c-1.4,0-2.6,1.1-2.6,2.6c0,0,0,0,0,0v4.6h-0.7v-11
		h0.7v4.8c0.5-1,1.6-1.6,2.7-1.6c1.6-0.1,3,1.1,3.1,2.7c0,0,0,0,0,0c0,0.1,0,0.3,0,0.4v4.7L149.2,90.8z"/>
	<path class="st1" d="M155.9,90.3c1,0,2-0.4,2.6-1.2l0.5,0.4c-0.8,0.9-1.9,1.4-3.1,1.4c-2.1,0-3.8-1.8-3.7-3.8c0,0,0,0,0,0V87l0,0
		c-0.1-2.1,1.4-3.9,3.5-4h0.1c2.1,0,3.5,1.7,3.5,4l0,0c0,0.1,0,0.2,0,0.3h-6.3C152.9,88.9,154.2,90.3,155.9,90.3L155.9,90.3z
		 M158.4,86.7c-0.1-1.6-1-3-2.7-3c-1.6,0.1-2.8,1.4-2.8,3H158.4z"/>
	<path class="st1" d="M165.5,83.9c-1.8,0-3.3,1.3-3.3,3.8v3.1h-0.7v-7.7h0.7v2.2c0.5-1.4,1.9-2.3,3.4-2.3L165.5,83.9L165.5,83.9z"/>
	<path class="st1" d="M174.2,80.5c-1,0-1.5,0.6-1.5,1.9v0.7h2.7v0.7h-2.7v7H172v-7h-1.1v-0.7h1.1v-0.8c0-1.7,0.8-2.6,2.3-2.6
		c0.4,0,0.8,0,1.1,0.2v0.7C175,80.6,174.6,80.5,174.2,80.5z"/>
	<path class="st1" d="M180.3,91c-2.2,0-3.9-1.8-3.9-3.9V87l0,0c0-2.2,1.8-3.9,3.9-3.9s3.9,1.8,3.9,3.9l0,0l0,0
		C184.3,89.2,182.5,91,180.3,91z M183.5,87c0.1-1.8-1.3-3.3-3.1-3.3c0,0,0,0,0,0l0,0c-1.7,0-3.1,1.4-3.1,3.2c0,0,0,0,0,0V87l0,0
		c-0.1,1.8,1.3,3.2,3.1,3.3l0,0c1.7,0,3.1-1.4,3.1-3.2c0,0,0,0,0,0L183.5,87L183.5,87z"/>
	<path class="st1" d="M190.7,83.9c-1.8,0-3.3,1.3-3.3,3.8v3.1h-0.7v-7.7h0.7v2.2c0.5-1.4,1.9-2.3,3.4-2.3L190.7,83.9L190.7,83.9z"/>
	<path class="st1" d="M201.2,90.8v-1.3c-0.7,0.9-1.8,1.5-2.9,1.4c-1.4,0-2.9-0.8-2.9-2.4l0,0c0-1.6,1.4-2.5,3.3-2.5
		c0.9,0,1.7,0.1,2.5,0.3v-0.3c0.1-1.2-0.8-2.3-2-2.4c-0.2,0-0.3,0-0.5,0c-0.8,0-1.7,0.2-2.4,0.6l-0.3-0.7c0.8-0.4,1.8-0.7,2.7-0.7
		c2,0,3.2,1,3.2,3v4.8L201.2,90.8z M201.2,87.1c-0.8-0.2-1.7-0.3-2.6-0.3c-1.6,0-2.5,0.7-2.5,1.8l0,0c0,1.1,1,1.8,2.2,1.8
		c1.4,0.1,2.7-0.9,2.9-2.3l0,0V87.1z"/>
	<path class="st1" d="M213.4,91c-2.9,0-5.2-2.3-5.2-5.2c0,0,0,0,0,0v-0.2l0,0c-0.1-2.9,2.2-5.3,5.1-5.4c0,0,0,0,0,0h0.1
		c1.5,0,3,0.6,4.1,1.7l-0.6,0.6c-0.9-1-2.2-1.5-3.5-1.5c-2.5,0-4.4,2.1-4.4,4.5c0,0,0,0,0,0v0.2l0,0c-0.1,2.5,1.8,4.6,4.3,4.7h0.1
		c1.4,0,2.7-0.6,3.6-1.6l0.5,0.5C216.5,90.3,215,91,213.4,91z"/>
	<path class="st1" d="M225.4,90.8v-1.4c-0.5,1-1.6,1.6-2.8,1.6c-1.6,0-2.9-1.2-3-2.8c0-0.1,0-0.2,0-0.3v-4.7h0.7v4.6
		c-0.1,1.3,0.7,2.4,2,2.6c0.1,0,0.3,0,0.4,0c1.4,0,2.6-1.2,2.6-2.6c0,0,0,0,0,0v-4.5h0.7v7.7H225.4z"/>
	<path class="st1" d="M232.9,83.9c-1.8,0-3.3,1.3-3.3,3.8v3.1h-0.7v-7.7h0.7v2.2c0.5-1.4,1.9-2.3,3.4-2.3L232.9,83.9L232.9,83.9z"/>
	<path class="st1" d="M237.9,90.3c1,0,2-0.4,2.6-1.2l0.5,0.4c-0.8,0.9-1.9,1.4-3.1,1.4c-2.1,0-3.8-1.8-3.7-3.8c0,0,0,0,0,0V87l0,0
		c-0.1-2.1,1.4-3.9,3.5-4h0.1c2.1,0,3.5,1.7,3.5,4l0,0c0,0.1,0,0.2,0,0.3h-6.3C234.9,88.9,236.3,90.3,237.9,90.3L237.9,90.3z
		 M240.4,86.7c-0.1-1.6-1-3-2.7-3c-1.6,0.1-2.8,1.4-2.8,3H240.4z"/>
</g>
<g id="celiac">
	<path class="st1" d="M125.7,51.7h-10.9v-6.6c0.1-1.2,0-2.4-0.3-3.6c-0.3-0.5-0.9-0.8-1.5-0.7c-0.7-0.1-1.4,0.2-1.7,0.9
		c-0.3,1.2-0.4,2.5-0.4,3.8v17.7c-0.1,1.2,0.1,2.4,0.4,3.6c0.3,0.6,1,0.9,1.6,0.8c0.7,0.1,1.3-0.3,1.6-0.8c0.3-1.3,0.5-2.7,0.4-4
		v-4.8h10.9v1.5c0,3.9-0.3,6.7-0.9,8.4c-0.8,1.9-2.3,3.4-4.1,4.3c-2.4,1.3-5,1.9-7.7,1.9c-2.7,0.1-5.4-0.5-7.9-1.6
		c-1.9-0.9-3.4-2.4-4.1-4.4c-0.8-2.7-1.1-5.6-1-8.4V48.5c0-2.1,0.1-4.1,0.3-6.2c0.2-1.5,0.9-2.9,1.8-4c1.1-1.4,2.6-2.4,4.3-3
		c4.6-1.7,9.7-1.4,14.2,0.6c1.8,0.9,3.3,2.4,4.1,4.2c0.8,2.5,1.1,5.2,1,7.8L125.7,51.7z"/>
	<path class="st1" d="M130.2,35.1h18.1v7.6H141v7.2h6.8v7.2H141v8.4h8v7.6h-18.8V35.1z"/>
	<path class="st1" d="M163.5,35.1v30.4h6.6v7.6h-17.5V35.1H163.5z"/>
	<path class="st1" d="M184.2,35.1v38.1h-10.9V35.1H184.2z"/>
	<path class="st1" d="M207.9,35.1l6.2,38.1H203l-0.6-6.8h-3.9l-0.6,6.8h-11.2l5.5-38.1L207.9,35.1z M202.2,59.6
		c-0.5-4.3-1.1-9.7-1.7-16c-1.1,7.3-1.8,12.6-2.1,16H202.2z"/>
	<path class="st1" d="M242,51.7h-10.9v-6.6c0.1-1.2,0-2.4-0.4-3.6c-0.2-0.5-0.7-0.7-1.5-0.7c-0.7-0.1-1.4,0.2-1.7,0.9
		c-0.3,1.2-0.4,2.5-0.4,3.8v17.7c-0.1,1.2,0,2.4,0.4,3.6c0.3,0.6,1,0.9,1.6,0.8c0.7,0.1,1.3-0.3,1.6-0.8c0.3-1.3,0.5-2.7,0.4-4v-4.8
		H242v1.5c0,3.9-0.3,6.7-0.9,8.4c-0.8,1.9-2.3,3.4-4.1,4.3c-2.4,1.3-5,1.9-7.8,1.9c-2.7,0.1-5.4-0.5-7.9-1.6
		c-1.9-0.9-3.4-2.4-4.1-4.4c-0.8-2.7-1.1-5.6-1-8.4V48.5c0-2.1,0.1-4.1,0.3-6.2c0.2-1.5,0.9-2.9,1.9-4c1.1-1.3,2.6-2.4,4.3-3
		c4.6-1.7,9.7-1.4,14.2,0.6c1.8,0.9,3.3,2.4,4.1,4.2c0.8,2.5,1.1,5.2,1,7.8V51.7z"/>
</g>
<g id="beyond">
	<path class="st1" d="M119.6,12.5c0.1,2.3-1.2,4.4-3.3,5.4c2.7,1,4.6,2.6,4.6,5.8c0,4.3-3.4,6.6-8.6,6.6h-10.7V6.4H112
		C116.6,6.4,119.6,8.8,119.6,12.5z M115.5,13.2c0-1.9-1.5-3.1-4.1-3.1h-5.9v6.3h5.6C113.7,16.5,115.5,15.5,115.5,13.2z M116.8,23.2
		c0-2-1.6-3.2-4.8-3.2h-6.5v6.6h6.8C115.1,26.6,116.8,25.4,116.8,23.2z"/>
	<path class="st1" d="M142.5,10.1h-13.1v6.2H141v3.8h-11.6v6.4h13.3v3.8h-17.3V6.4h17.2L142.5,10.1z"/>
	<path class="st1" d="M157.6,30.3h-4.1v-9.4l-9.2-14.5h4.8l6.5,10.6l6.6-10.6h4.7l-9.2,14.4V30.3z"/>
	<path class="st1" d="M178.8,30.7c-7.1,0-12.1-5.6-12.1-12.3c-0.2-6.7,5.1-12.2,11.7-12.4h0.4C186,6,191,11.5,191,18.3
		c0.2,6.6-5,12.2-11.6,12.4c0,0-0.1,0-0.1,0L178.8,30.7z M178.8,9.8c-4.6,0-7.8,3.8-7.8,8.5s3.3,8.5,7.9,8.5s7.8-3.8,7.8-8.5
		S183.4,9.8,178.8,9.8z"/>
	<path class="st1" d="M211.2,6.4h4v23.9h-3.4l-12.8-17v17h-4V6.4h3.8l12.4,16.5V6.4z"/>
	<path class="st1" d="M229.7,30.3h-8.6V6.4h8.6c7.3,0,12.3,5.2,12.3,11.9S237,30.3,229.7,30.3z M229.7,10.2h-4.5v16.2h4.6
		c4.2,0.2,7.8-3.1,8-7.3c0-0.2,0-0.5,0-0.8C237.7,13.7,234.6,10.2,229.7,10.2z"/>
</g>
</svg>
